<?xml version="1.0" encoding="UTF-8"?>
<level>
  <owner>stolbitsa</owner>
  <repo>merry-christmas-kids-2</repo>
  <version>v1.0.0</version>
  <next number="1" owner="stolbitsa" repo="merry-christmas-kids"/>
  <readme>
    <ru>437256f99f2a32087bd3781653b60df90ffcc2a7cfbe5eaf4b1b37a0f703796e</ru>
    <en>3c0fb87442cf8458dfc68856f0239dac9f262560054d0c5681a76a1e0bf3ca74</en>
  </readme>
  <license>b1b99f5538d1fd3702219bff50c665196dfa42f6ee755c37fe41a6178d6bc6e5</license>
  <exercise number="1">
    <scale>major</scale>
    <bpm>145</bpm>
    <lowestNote>5</lowestNote>
    <tonalities>6</tonalities>
    <video name="20-merry-christmas-v-2-kids-tv_1.mp4" size="2305862" type="video/mp4" volume="0.565">63ab27278b03cdb2ebfe670566bae818fb13925fa822aa7d774603462e3fec85</video>
    <notes>
      <note number="1" values="5" ticks="78" durationTicks="86" ppq="96" velocity="0.843"/>
      <note number="2" values="18" ticks="173" durationTicks="73" ppq="96" velocity="0.739"/>
      <note number="3" values="18" ticks="270" durationTicks="45" ppq="96" velocity="0.719"/>
      <note number="4" values="28" ticks="318" durationTicks="40" ppq="96" velocity="0.719"/>
      <note number="5" values="18" ticks="367" durationTicks="41" ppq="96" velocity="0.719"/>
      <note number="6" values="7" ticks="415" durationTicks="37" ppq="96" velocity="0.719"/>
      <note number="7" values="6" ticks="464" durationTicks="78" ppq="96" velocity="0.719"/>
      <note number="8" values="6" ticks="558" durationTicks="95" ppq="96" velocity="0.719"/>
    </notes>
  </exercise>
  <exercise number="2">
    <scale>major</scale>
    <bpm>145</bpm>
    <lowestNote>5</lowestNote>
    <tonalities>6</tonalities>
    <video name="20-merry-christmas-v-2-kids-tv_2.mp4" size="2635631" type="video/mp4" volume="0.571">ad50a632c281e9ed012d65b2f68d1f58afcdad6e3ceea7bec006fd1735a28233</video>
    <notes>
      <note number="1" values="6" ticks="104" durationTicks="86" ppq="96" velocity="0.843"/>
      <note number="2" values="28" ticks="199" durationTicks="77" ppq="96" velocity="0.739"/>
      <note number="3" values="28" ticks="296" durationTicks="45" ppq="96" velocity="0.719"/>
      <note number="4" values="38" ticks="346" durationTicks="41" ppq="96" velocity="0.737"/>
      <note number="5" values="28" ticks="391" durationTicks="45" ppq="96" velocity="0.719"/>
      <note number="6" values="18" ticks="438" durationTicks="46" ppq="96" velocity="0.719"/>
      <note number="7" values="7" ticks="490" durationTicks="95" ppq="96" velocity="0.719"/>
      <note number="8" values="5" ticks="584" durationTicks="95" ppq="96" velocity="0.719"/>
    </notes>
  </exercise>
  <exercise number="3">
    <scale>major</scale>
    <bpm>145</bpm>
    <lowestNote>5</lowestNote>
    <tonalities>6</tonalities>
    <video name="20-merry-christmas-v-2-kids-tv_3.mp4" size="2161088" type="video/mp4" volume="0.573">61749c6bcd1f5f6ecc704c81ad72b8b25c1bb0199e43a2b037ae584cca3bc875</video>
    <notes>
      <note number="1" values="5" ticks="96" durationTicks="86" ppq="96" velocity="0.843"/>
      <note number="2" values="38" ticks="191" durationTicks="77" ppq="96" velocity="0.739"/>
      <note number="3" values="38" ticks="288" durationTicks="48" ppq="96" velocity="0.719"/>
      <note number="4" values="48" ticks="336" durationTicks="45" ppq="96" velocity="0.719"/>
      <note number="5" values="38" ticks="386" durationTicks="46" ppq="96" velocity="0.719"/>
      <note number="6" values="28" ticks="432" durationTicks="45" ppq="96" velocity="0.719"/>
      <note number="7" values="18" ticks="482" durationTicks="95" ppq="96" velocity="0.719"/>
      <note number="8" values="6" ticks="576" durationTicks="95" ppq="96" velocity="0.719"/>
    </notes>
  </exercise>
  <exercise number="4">
    <scale>major</scale>
    <bpm>145</bpm>
    <lowestNote>5</lowestNote>
    <tonalities>6</tonalities>
    <video name="20-merry-christmas-v-2-kids-tv_4.mp4" size="2213424" type="video/mp4" volume="0.558">fffa61edb05216766e5466412d268a36e4988312f06a8b1301dc5bbfcf29e198</video>
    <notes>
      <note number="1" values="5" ticks="121" durationTicks="29" ppq="96" velocity="0.843"/>
      <note number="2" values="5" ticks="168" durationTicks="45" ppq="96" velocity="0.739"/>
      <note number="3" values="6" ticks="219" durationTicks="95" ppq="96" velocity="0.719"/>
      <note number="4" values="28" ticks="316" durationTicks="93" ppq="96" velocity="0.719"/>
      <note number="5" values="7" ticks="412" durationTicks="96" ppq="96" velocity="0.719"/>
      <note number="6" values="18" ticks="508" durationTicks="170" ppq="96" velocity="0.719"/>
    </notes>
  </exercise>
  <exercise number="5">
    <scale>major</scale>
    <bpm>145</bpm>
    <lowestNote>5</lowestNote>
    <tonalities>6</tonalities>
    <video name="20-merry-christmas-v-2-kids-tv_5.mp4" size="1501979" type="video/mp4" volume="0.573">3fd100c53d77f1310a4d992b4da402c4889d31e944c72a7fe3b981cfaf637ef8</video>
    <notes>
      <note number="1" values="5" ticks="98" durationTicks="86" ppq="96" velocity="0.843"/>
      <note number="2" values="18" ticks="193" durationTicks="80" ppq="96" velocity="0.732"/>
      <note number="3" values="18" ticks="290" durationTicks="75" ppq="96" velocity="0.717"/>
      <note number="4" values="18" ticks="385" durationTicks="84" ppq="96" velocity="0.717"/>
      <note number="5" values="7" ticks="483" durationTicks="91" ppq="96" velocity="0.717"/>
    </notes>
  </exercise>
  <exercise number="6">
    <scale>major</scale>
    <bpm>145</bpm>
    <lowestNote>5</lowestNote>
    <tonalities>6</tonalities>
    <video name="20-merry-christmas-v-2-kids-tv_6.mp4" size="2197920" type="video/mp4" volume="0.578">baf65f06dcb2ecba971c65495fc1dc6a5932cf2e4ce7591c090ea0544a8d02e7</video>
    <notes>
      <note number="1" values="7" ticks="96" durationTicks="86" ppq="96" velocity="0.843"/>
      <note number="2" values="18" ticks="191" durationTicks="79" ppq="96" velocity="0.732"/>
      <note number="3" values="7" ticks="288" durationTicks="90" ppq="96" velocity="0.717"/>
      <note number="4" values="6" ticks="384" durationTicks="93" ppq="96" velocity="0.732"/>
      <note number="5" values="5" ticks="481" durationTicks="93" ppq="96" velocity="0.717"/>
    </notes>
  </exercise>
  <exercise number="7">
    <scale>major</scale>
    <bpm>145</bpm>
    <lowestNote>5</lowestNote>
    <tonalities>6</tonalities>
    <video name="20-merry-christmas-v-2-kids-tv_7.mp4" size="2846469" type="video/mp4" volume="0.566">55a6857c466ef0d8a21b0156f08f3d4318d4f0c457af26577058589d6e4ca792</video>
    <notes>
      <note number="1" values="28" ticks="88" durationTicks="86" ppq="96" velocity="0.843"/>
      <note number="2" values="38" ticks="183" durationTicks="74" ppq="96" velocity="0.732"/>
      <note number="3" values="38" ticks="280" durationTicks="37" ppq="96" velocity="0.717"/>
      <note number="4" values="28" ticks="329" durationTicks="31" ppq="96" velocity="0.717"/>
      <note number="5" values="18" ticks="378" durationTicks="44" ppq="96" velocity="0.717"/>
      <note number="6" values="28" ticks="425" durationTicks="38" ppq="96" velocity="0.717"/>
      <note number="7" values="58" ticks="474" durationTicks="95" ppq="96" velocity="0.717"/>
      <note number="8" values="5" ticks="568" durationTicks="95" ppq="96" velocity="0.717"/>
    </notes>
  </exercise>
  <exercise number="8">
    <scale>major</scale>
    <bpm>145</bpm>
    <lowestNote>5</lowestNote>
    <tonalities>6</tonalities>
    <video name="20-merry-christmas-v-2-kids-tv_8.mp4" size="2955220" type="video/mp4" volume="0.551">cf2676576081356c16b11f7877e51d7477bcc3134d35f05b7715f4713578080f</video>
    <notes>
      <note number="1" values="5" ticks="55" durationTicks="44" ppq="96" velocity="0.843"/>
      <note number="2" values="5" ticks="118" durationTicks="34" ppq="96" velocity="0.732"/>
      <note number="3" values="6" ticks="153" durationTicks="95" ppq="96" velocity="0.717"/>
      <note number="4" values="28" ticks="250" durationTicks="93" ppq="96" velocity="0.717"/>
      <note number="5" values="7" ticks="346" durationTicks="96" ppq="96" velocity="0.717"/>
      <note number="6" values="18" ticks="441" durationTicks="120" ppq="96" velocity="0.717"/>
    </notes>
  </exercise>
</level>
